# xmcd
#
# Track frame offsets:
#	150
#	18830
#	44850
#	69127
#
# Disc length: 1153 seconds
#
# Revision: 1
# Processed by: cddbd v1.5.2PL0 Copyright (c) Steve Scherf et al.
# Submitted via: audiograbber 1.83.01
#
DISCID=2c047f04
DTITLE=Alto/Jewell - Love is Severe
DYEAR=1993
DGENRE=
TTITLE0=Single Edit
TTITLE1=Long Version
TTITLE2=Dance Mix
TTITLE3=Rapped version
EXTD=
EXTT0=
EXTT1=
EXTT2=
EXTT3=
PLAYORDER=
